<svg id="Capa_1" enable-background="new 0 0 512 512" height="512" viewBox="0 0 512 512" width="512" xmlns="http://www.w3.org/2000/svg" xmlns:xlink="http://www.w3.org/1999/xlink"><linearGradient id="SVGID_1_" gradientUnits="userSpaceOnUse" x1="256" x2="256" y1="391" y2="121"><stop offset="0" stop-color="#00b59c"/><stop offset="1" stop-color="#9cffac"/></linearGradient><linearGradient id="SVGID_2_" gradientUnits="userSpaceOnUse" x1="256" x2="256" y1="391" y2="121"><stop offset="0" stop-color="#c3ffe8"/><stop offset=".9973" stop-color="#f0fff4"/></linearGradient><g><g id="Money_2_"><g><path d="m422 121h-332l-90 90v90l90 90h332l90-90v-90z" fill="url(#SVGID_1_)"/></g></g><g><g><path d="m497 121h-75v45c0 24.9 20.1 45 45 45h45v-75c0-8.29-6.71-15-15-15zm-497 15v75h45c24.9 0 45-20.1 45-45v-45h-75c-8.29 0-15 6.71-15 15zm422 210v45h75c8.29 0 15-6.71 15-15v-75h-45c-24.9 0-45 20.1-45 45zm-377-45h-45v75c0 8.29 6.71 15 15 15h75v-45c0-24.9-20.1-45-45-45zm91-60c-8.284 0-15 6.716-15 15s6.716 15 15 15 15-6.716 15-15-6.716-15-15-15zm240 0c-8.284 0-15 6.716-15 15s6.716 15 15 15 15-6.716 15-15-6.716-15-15-15zm-60-30c8.401 0 15-6.601 15-15 0-8.401-6.599-15-15-15h-45v-15c0-8.401-6.599-15-15-15s-15 6.599-15 15v15h-15c-24.902 0-45 20.1-45 45 0 24.898 20.098 45 45 45h15v30h-45c-8.401 0-15 6.599-15 15 0 8.399 6.599 15 15 15h45v15c0 8.399 6.599 15 15 15s15-6.601 15-15v-15h15c24.902 0 45-20.102 45-45 0-24.9-20.098-45-45-45h-15v-30zm-75 30h-15c-8.401 0-15-6.601-15-15 0-8.401 6.599-15 15-15h15zm45 30c8.401 0 15 6.599 15 15 0 8.399-6.599 15-15 15h-15v-30z" fill="url(#SVGID_2_)"/></g></g></g></svg>